# xmcd
#
# Track frame offsets:
#	150
#	4039
#	11107
#	37642
#	48999
#	60124
#	72616
#	93710
#	100426
#	112703
#	125969
#	142867
#	146372
#	152638
#	159445
#	178244
#	180171
#	190277
#	211215
#
# Disc length: 2881 seconds
#
# Revision: 1
# Processed by: cddbd v1.4PL0 Copyright (c) Steve Scherf et al.
# Submitted via: audiograbber 1.81.03
#
DISCID=f80b3f13
DTITLE=Aniada a Noar - Södsaum
DYEAR=1900
DGENRE=Pop-Folk
TTITLE0=Stoahoate Schaedln
TTITLE1=Grillenpolka
TTITLE2=Wann i so schau
TTITLE3=Jessas Leut', Schaut's
TTITLE4=Soedsaum
TTITLE5=Koa Bauer mog i neama bleib'm
TTITLE6=Steinernes Land
TTITLE7=Fernsehen
TTITLE8=Frauenwalzer
TTITLE9=D'Baumoastaleit
TTITLE10=S'Versunkene Dorf im Tannermoor
TTITLE11=D'Wetti
TTITLE12=Wer is da Iakda
TTITLE13=Raikakreiz-Boarischa
TTITLE14=De echtn Weana
TTITLE15=Uns vom Dorf
TTITLE16=In Sepp seina
TTITLE17=Es Wollt' ein Graf
TTITLE18=Hau ma jetzt O
EXTD=
EXTT0=
EXTT1=
EXTT2=
EXTT3=
EXTT4=
EXTT5=
EXTT6=
EXTT7=
EXTT8=
EXTT9=
EXTT10=
EXTT11=
EXTT12=
EXTT13=
EXTT14=
EXTT15=
EXTT16=
EXTT17=
EXTT18=
PLAYORDER=
